<svg width="24" height="20" viewBox="0 0 24 20" fill="none" xmlns="http://www.w3.org/2000/svg">
<path d="M22.1667 3.52948H1.16667C0.857247 3.52948 0.560501 3.34355 0.341709 3.01261C0.122916 2.68166 0 2.2328 0 1.76477C0 1.29674 0.122916 0.847882 0.341709 0.516935C0.560501 0.185988 0.857247 6.48499e-05 1.16667 6.48499e-05H22.1667C22.4761 6.48499e-05 22.7728 0.185988 22.9916 0.516935C23.2104 0.847882 23.3333 1.29674 23.3333 1.76477C23.3333 2.2328 23.2104 2.68166 22.9916 3.01261C22.7728 3.34355 22.4761 3.52948 22.1667 3.52948ZM18.2778 11.7648H5.05556C4.74614 11.7648 4.44939 11.5788 4.2306 11.2479C4.01181 10.917 3.88889 10.4681 3.88889 10.0001C3.88889 9.53204 4.01181 9.08318 4.2306 8.75223C4.44939 8.42128 4.74614 8.23536 5.05556 8.23536H18.2778C18.5872 8.23536 18.8839 8.42128 19.1027 8.75223C19.3215 9.08318 19.4444 9.53204 19.4444 10.0001C19.4444 10.4681 19.3215 10.917 19.1027 11.2479C18.8839 11.5788 18.5872 11.7648 18.2778 11.7648ZM13.6111 20.0001H9.72222C9.4128 20.0001 9.11606 19.8141 8.89726 19.4832C8.67847 19.1522 8.55556 18.7034 8.55556 18.2354C8.55556 17.7673 8.67847 17.3185 8.89726 16.9875C9.11606 16.6566 9.4128 16.4707 9.72222 16.4707H13.6111C13.9205 16.4707 14.2173 16.6566 14.4361 16.9875C14.6549 17.3185 14.7778 17.7673 14.7778 18.2354C14.7778 18.7034 14.6549 19.1522 14.4361 19.4832C14.2173 19.8141 13.9205 20.0001 13.6111 20.0001Z" fill="#292E3D"/>
</svg>
